<?xml version="1.0" encoding="UTF-8"?>
<svg width="20px" height="26px" viewBox="0 0 20 26" version="1.1" xmlns="http://www.w3.org/2000/svg" xmlns:xlink="http://www.w3.org/1999/xlink">
    <!-- Generator: Sketch 52.5 (67469) - http://www.bohemiancoding.com/sketch -->
    <title>PS P</title>
    <desc>Created with Sketch.</desc>
    <g id="Grading" stroke="none" stroke-width="1" fill="none" fill-rule="evenodd">
        <g id="SV---Assignments-7" transform="translate(-45.000000, -17.000000)" fill="#FFFFFF">
            <g id="Group-16">
                <g id="Logo-Copy-2" transform="translate(45.000000, 17.000000)">
                    <path d="M6.15326017,0.000129353234 C5.85381399,0.000129353234 5.6110952,0.236587065 5.6110952,0.528149254 L5.6110952,24.814995 L3.88602485,24.814995 L3.88602485,0.528149254 C3.88602485,0.236587065 3.64343891,0.000129353234 3.34399274,0.000129353234 L0.542164966,0.000129353234 C0.242718793,0.000129353234 0,0.236587065 0,0.528149254 L0,25.3430149 C0,25.6343184 0.242718793,25.8707761 0.542164966,25.8707761 C0.841611139,25.8707761 1.08446278,25.6343184 1.08446278,25.3430149 L1.08446278,1.05616915 L2.80169492,1.05616915 L2.80169492,25.3430149 C2.80169492,25.6343184 3.04454656,25.8707761 3.34399274,25.8707761 L6.15326017,25.8707761 C6.45270634,25.8707761 6.69555798,25.6343184 6.69555798,25.3430149 L6.69555798,1.05616915 L8.76444674,1.05616915 C14.5149026,1.05616915 18.5316529,4.46566169 18.5316529,9.3480995 C18.5316529,14.0478905 14.7661239,17.3758905 9.30661171,17.5818209 L9.30661171,15.9954328 C13.5290153,15.7787662 16.5384892,13.0420398 16.5384892,9.32779104 C16.5384892,5.3941592 13.3418282,2.64682587 8.76484529,2.64682587 C8.6208348,2.64682587 8.4828026,2.70257711 8.38103873,2.80166169 C8.27927486,2.90061692 8.22228177,3.03527363 8.22241462,3.17523383 L8.2252045,5.93110448 C8.22560305,6.22240796 8.46818899,6.45834826 8.76750231,6.45834826 C10.4850002,6.45834826 12.2183073,7.34571144 12.2183073,9.3281791 C12.2183073,11.0176617 10.7991928,12.1977512 8.76750231,12.1977512 C8.46805614,12.1977512 8.2252045,12.4340796 8.2252045,12.7256418 C8.2252045,13.017204 8.46805614,13.2535323 8.76750231,13.2535323 C11.3954281,13.2535323 13.3026372,11.6024677 13.3026372,9.3281791 C13.3026372,7.17638806 11.6869032,5.62867662 9.30926873,5.42533333 L9.30767451,3.71787065 C12.9535047,3.92056716 15.4538936,6.17066667 15.4538936,9.3281791 C15.4538936,12.64001 12.7032134,14.9531045 8.76484529,14.9531045 C8.46526627,14.9531045 8.22241462,15.1891741 8.22241462,15.4808657 L8.22241462,18.1200597 C8.22241462,18.4116219 8.46526627,18.6478209 8.76484529,18.6478209 C15.0526835,18.6478209 19.6163814,14.7368259 19.6163814,9.3478408 C19.6163814,3.8441194 15.153916,0 8.76484529,0 L6.15326017,0.000129353234 L6.15326017,0.000129353234 Z" id="PS-P"></path>
                </g>
            </g>
        </g>
    </g>
</svg>